<svg xmlns="http://www.w3.org/2000/svg" xmlns:xlink="http://www.w3.org/1999/xlink" version="1.1" x="0px" y="0px" viewBox="0 0 1024 1280" style="enable-background:new 0 0 1024 1024;" xml:space="preserve"><g><g><path d="M305.31,597.37c-28.01,0-55.02-8.17-80.29-24.28c-24.05-15.33-45.32-37.07-63.24-64.62c-1.05-1.62-1.62-3.52-1.62-5.45    h9.99v-10.01l6.07,6.07l2.32-1.51c33.46,51.46,78.47,79.8,126.76,79.8c48.28,0,93.29-28.34,126.75-79.8l16.77,10.9    c-17.91,27.55-39.19,49.29-63.23,64.62C360.32,589.2,333.31,597.37,305.31,597.37z"/></g><g><path d="M305.31,675.37c-27.18,0-53.21-13.86-77.39-41.19c-22.24-25.14-42.28-60.99-59.56-106.54    c-34.82-91.83-55.35-215.21-57.8-347.42c-0.18-9.81,3.5-19.06,10.36-26.05c6.84-6.97,15.98-10.8,25.74-10.8h16.15v20h-16.15    c-4.35,0-8.42,1.71-11.47,4.81c-3.07,3.13-4.72,7.27-4.63,11.67c2.41,129.96,22.48,250.96,56.51,340.7    c16.41,43.29,35.2,77.06,55.84,100.38c20.22,22.85,41.22,34.44,62.41,34.44s42.2-11.59,62.41-34.44    c20.64-23.32,39.42-57.1,55.84-100.38c34.03-89.74,54.1-210.73,56.51-340.7c0.08-4.4-1.56-8.54-4.63-11.67    c-3.05-3.1-7.12-4.81-11.47-4.81h-16.15v-20h16.15c9.76,0,18.9,3.84,25.74,10.8c6.86,6.99,10.54,16.24,10.36,26.05    c-2.45,132.2-22.98,255.59-57.8,347.42c-17.27,45.55-37.31,81.4-59.56,106.54C358.52,661.51,332.48,675.37,305.31,675.37z"/></g><g><path d="M461.76,900.85c-91.79,0-166.46-74.67-166.46-166.46v-69.02h20v69.02c0,80.76,65.7,146.46,146.46,146.46    s146.46-65.7,146.46-146.46V353.45c0-65.4,53.21-118.6,118.6-118.6s118.6,53.21,118.6,118.6v331.72h-20V353.45    c0-54.37-44.23-98.6-98.6-98.6s-98.6,44.23-98.6,98.6v380.94C628.22,826.18,553.54,900.85,461.76,900.85z"/></g><g><path d="M194.6,183.59c-1.3,0-2.6-0.12-3.91-0.36l-25.95-4.83c-6.91-1.29-11.93-7.33-11.93-14.36V142.7    c0-7.03,5.02-13.07,11.93-14.36l25.95-4.83c6.23-1.16,12.59,0.5,17.45,4.54c4.87,4.05,7.66,10,7.66,16.33v17.97    c0,6.33-2.79,12.28-7.66,16.33C204.29,181.89,199.51,183.59,194.6,183.59z M172.81,159.56l21.54,4.01    c0.38,0.07,0.72-0.02,1.01-0.26c0.29-0.25,0.44-0.56,0.44-0.95v-17.97c0-0.38-0.15-0.7-0.44-0.95c-0.29-0.25-0.64-0.33-1.01-0.26    l-21.54,4.01V159.56z"/></g><g><path d="M416.01,183.59c-4.91,0-9.7-1.71-13.55-4.91c-4.87-4.05-7.66-10-7.66-16.33v-17.97c0-6.33,2.79-12.28,7.66-16.33    c4.87-4.05,11.23-5.7,17.45-4.54l25.95,4.83c6.91,1.29,11.93,7.32,11.93,14.36v21.35c0,7.03-5.02,13.07-11.93,14.36l-25.95,4.83    C418.62,183.47,417.31,183.59,416.01,183.59z M416.02,143.15c-0.28,0-0.54,0.1-0.77,0.29c-0.29,0.25-0.44,0.56-0.44,0.95v17.97    c0,0.38,0.15,0.7,0.44,0.95c0.29,0.25,0.63,0.33,1.01,0.26l21.54-4.01v-12.38l-21.54-4.01    C416.18,143.16,416.1,143.15,416.02,143.15z"/></g><g><path d="M835.43,835.14c-20.84,0-37.79-16.95-37.79-37.79c0-20.84,16.95-37.79,37.79-37.79s37.79,16.95,37.79,37.79    C873.22,818.18,856.26,835.14,835.43,835.14z M835.43,779.56c-9.81,0-17.79,7.98-17.79,17.79s7.98,17.79,17.79,17.79    s17.79-7.98,17.79-17.79S845.24,779.56,835.43,779.56z"/></g><g><path d="M835.42,875.37c-43.02,0-78.02-35-78.02-78.02c0-35.21,23.71-66.19,57.67-75.35c13.18-3.56,27.52-3.56,40.71,0    c33.95,9.16,57.67,40.14,57.67,75.34C913.45,840.37,878.45,875.37,835.42,875.37z M835.42,739.32c-5.15,0-10.25,0.67-15.14,1.99    c-25.25,6.81-42.88,29.85-42.88,56.04c0,31.99,26.03,58.02,58.02,58.02c32,0,58.03-26.03,58.03-58.02    c0-26.18-17.63-49.23-42.88-56.03C845.67,739.99,840.57,739.32,835.42,739.32z"/></g><g><path d="M853.17,741.66c-0.87,0-1.75-0.11-2.61-0.35c-9.79-2.65-20.49-2.65-30.28,0c-3,0.81-6.22,0.18-8.69-1.71    c-2.47-1.89-3.92-4.83-3.92-7.94v-36.38c0-11.09,9.02-20.11,20.11-20.11h15.29c11.09,0,20.1,9.02,20.1,20.11v36.38    c0,3.11-1.45,6.05-3.92,7.94C857.49,740.95,855.35,741.66,853.17,741.66z M835.42,719.32c2.6,0,5.18,0.13,7.75,0.38v-24.43    c0-0.06-0.05-0.11-0.1-0.11h-15.29c-0.06,0-0.11,0.05-0.11,0.11v24.43C830.24,719.45,832.83,719.32,835.42,719.32z"/></g></g><text x="0" y="1039" fill="#000000" font-size="5px" font-weight="bold" font-family="'Helvetica Neue', Helvetica, Arial-Unicode, Arial, Sans-serif">Created by IconPai</text><text x="0" y="1044" fill="#000000" font-size="5px" font-weight="bold" font-family="'Helvetica Neue', Helvetica, Arial-Unicode, Arial, Sans-serif">from the Noun Project</text></svg>