<svg xmlns="http://www.w3.org/2000/svg" xmlns:xlink="http://www.w3.org/1999/xlink" version="1.1" x="0px" y="0px" viewBox="0 0 1024 1280" style="enable-background:new 0 0 1024 1024;" xml:space="preserve"><g><g><path d="M747.9,416.13c-2.57,0-5.05-0.99-6.92-2.78c-5.18-4.97-10.22-10.25-15.09-15.36c-9.4-9.85-18.28-19.16-28-26.32    c-3.14-2.31-4.65-6.23-3.87-10.04c2.36-11.62,1.39-23.79-2.8-35.19c-13.65-37.14-8.18-82.93,14.62-122.49    c17.97-31.16,47.74-59.89,79.65-76.84c35.88-19.06,69.57-21.53,94.87-6.94c25.3,14.59,40.05,44.98,41.53,85.58    c1.31,36.1-8.63,76.26-26.6,107.43c-22.8,39.55-59.68,67.23-98.66,74.04c-16.56,2.88-31.01,11.71-40.68,24.85    c-1.71,2.32-4.33,3.79-7.2,4.04C748.48,416.12,748.19,416.13,747.9,416.13z M714.65,359.37c9.18,7.48,17.57,16.27,25.72,24.82    c2.28,2.4,4.61,4.83,6.95,7.23c12.19-12.46,28.13-20.82,45.89-23.91c33.2-5.8,64.89-29.84,84.77-64.32c0,0,0,0,0,0    c16.17-28.05,25.12-64.21,23.94-96.71c-1.2-32.97-12.69-58.11-31.53-68.98c-18.84-10.86-46.35-8.21-75.49,7.28    c-28.73,15.27-55.54,41.12-71.71,69.17c-19.88,34.49-24.81,73.97-13.18,105.6C714.73,332.41,716.3,346.05,714.65,359.37z"/></g><g><path d="M315.48,452.88c-0.49,0-0.99-0.04-1.48-0.11c-3.01-0.45-5.66-2.25-7.18-4.89l-24.45-42.41    c-4.47-7.75-12.81-12.33-21.74-11.95l-30.88,1.3c-22.83,0.96-44.28-11.57-54.64-31.93l-69.83-137.15    c-7.28-14.28-2.1-31.75,11.8-39.76l123.32-71.1c13.89-8.01,31.6-3.75,40.32,9.72l83.71,129.15c12.42,19.17,12.52,44.01,0.26,63.29    l-16.6,26.06c-4.8,7.54-5.01,17.05-0.54,24.8l19.01,32.97c2.49,4.33,1.42,9.83-2.53,12.89c-2.81,2.18-5.71,4.52-8.89,7.16    c-10.55,8.76-20.76,18.05-32.83,29.29C320.43,451.94,317.99,452.88,315.48,452.88z M261.68,373.49c15.67,0,30.11,8.3,38.01,21.98    l18.19,31.56c7.63-7,15.92-14.41,24.47-21.51c0.88-0.73,1.73-1.43,2.57-2.12l-14.72-25.52c0,0,0,0,0,0    c-8.2-14.23-7.82-31.68,1-45.53l16.6-26.06c8.08-12.69,8.01-29.05-0.17-41.67l-83.71-129.15c-2.93-4.53-8.88-5.96-13.54-3.27    l-123.32,71.1c-4.67,2.69-6.41,8.56-3.97,13.36l69.83,137.15c6.83,13.41,20.95,21.67,35.98,21.03l30.87-1.3    C260.41,373.5,261.04,373.49,261.68,373.49z"/></g><g><rect x="234.59" y="134.4" transform="matrix(0.842 -0.5395 0.5395 0.842 -70.5718 163.9416)" width="20" height="136.09"/></g><g><rect x="180.76" y="165.43" transform="matrix(0.8888 -0.4584 0.4584 0.8888 -85.7994 113.4107)" width="20" height="136.09"/></g><g><path d="M252.14,757.37c-16.16,0-32.63-1.46-48.61-6.91c-26.35-8.98-46.75-28.67-54.59-52.66c-7.55-23.08-2.23-55.25,21.2-74.04    c-10.78-27.39-0.12-60.56,15.83-81.58c13.85-18.28,31.68-31.19,48.92-43.67c4.79-3.46,9.73-7.05,14.44-10.64    c18.13-13.85,35.47-30.05,52.24-45.72c2.36-2.2,4.71-4.4,7.07-6.6c9.93-9.25,21.55-19.97,33.68-30.04    c3.35-2.78,6.42-5.25,9.39-7.56c36.78-28.72,70.71-43.88,103.71-46.33c20.24-1.51,40.04,1.85,59.19,5.1    c21.62,3.67,42.03,7.13,62.33,3.89c11.27-1.8,22.53-5.66,34.46-9.73c21.93-7.5,44.61-15.26,68.24-9.77    c10.21,2.37,20.04,7.1,30.07,14.46c11.14,8.2,21.04,18.58,30.62,28.63c4.72,4.95,9.6,10.07,14.46,14.73    c2.24,2.15,4.34,4.07,6.43,5.89c14.83,12.89,32.97,23.11,50.51,32.99c33.04,18.62,67.19,37.87,83.9,76.31    c18.64,42.9,7.35,101.42-27.46,142.29c-27.23,31.98-76.09,73.58-124.13,85.58l-4.85-19.4c40.67-10.16,86.43-47.07,113.75-79.14    c30.05-35.28,40.06-85.18,24.34-121.35c-14.03-32.28-43.83-49.08-75.38-66.85c-18.41-10.37-37.44-21.1-53.81-35.32    c-2.34-2.04-4.68-4.18-7.16-6.55c-5.18-4.97-10.22-10.25-15.09-15.35c-9.4-9.85-18.28-19.16-28-26.32    c-7.79-5.72-15.23-9.35-22.74-11.09c-18.05-4.19-37.09,2.32-57.25,9.21c-12.2,4.17-24.81,8.48-37.77,10.56    c-23.56,3.77-46.58-0.14-68.84-3.92c-18.8-3.19-36.55-6.2-54.36-4.87c-28.93,2.16-59.32,15.95-92.91,42.17    c-2.82,2.19-5.73,4.53-8.9,7.17c-10.55,8.76-20.76,18.05-32.83,29.29c-2.35,2.19-4.7,4.38-7.05,6.57    c-17.13,16-34.84,32.54-53.76,46.99c-4.92,3.75-9.97,7.41-14.86,10.95c-16.8,12.16-32.66,23.65-44.71,39.55    c-14.14,18.65-22.26,47.9-10.43,67.73c1.37,2.29,1.76,5.04,1.09,7.62c-0.67,2.58-2.34,4.8-4.65,6.14    c-20.86,12.16-25.86,37.84-19.97,55.83c5.89,18.05,21.61,32.98,42.03,39.94c19.75,6.73,41.7,6.27,62.49,5.22    c20.97-1.07,36.59-4.28,44.65-16.42l16.66,11.06c-13.44,20.24-36.93,24.14-60.3,25.34C266.49,757.08,259.34,757.37,252.14,757.37z    "/></g><g><path d="M618.89,692.03l-18.41-7.82c24.76-58.26,42.14-119.42,51.66-181.77l19.77,3.02C662.14,569.47,644.3,632.24,618.89,692.03z    "/></g><g><path d="M488.05,688.45c-25.5-67.52-26.03-153.9-18.73-207.35l19.82,2.71c-7.53,55.17-5,137.66,17.62,197.58L488.05,688.45z"/></g><g><path d="M401.77,703c-55.05-33.1-88.02-62.02-115.45-128.28l18.48-7.65c25.45,61.47,54.87,87.28,107.28,118.79L401.77,703z"/></g><g><path d="M349.15,719.56c-54.26,0-101.11-13.35-128.54-36.64l12.95-15.25c23.86,20.26,66,31.88,115.59,31.88V719.56z"/></g><g><path d="M702.89,711.27l-11.46-16.39c24.26-16.95,49.34-34.47,69.83-55.73c22.22-23.05,34.63-45.3,39.04-70l19.69,3.52    c-5.14,28.79-19.23,54.32-44.33,80.36C753.83,675.68,727.94,693.77,702.89,711.27z"/></g><g><path d="M731.66,913.15c-2.07,0-4.14-0.32-6.15-0.97c-21.9-7.1-100.52-30.28-192.91-30.28c-92.78,0-171.1,23.16-192.9,30.26    c-6.06,1.97-12.75,0.92-17.91-2.83c-5.16-3.75-8.24-9.79-8.24-16.17V732.28c0-18.57,22.58-32.72,69.02-43.24    c40.19-9.11,93.47-14.12,150.02-14.12c56.56,0,109.84,5.01,150.03,14.12c46.44,10.52,69.02,24.67,69.02,43.24v160.9    c0,6.37-3.08,12.41-8.23,16.16C739.98,911.84,735.84,913.15,731.66,913.15z M532.6,694.92c-55.11,0-106.82,4.84-145.6,13.63    c-44.37,10.05-53.44,21.28-53.44,23.74v160.89c22.46-7.35,103.32-31.27,199.04-31.27c95.33,0,176.48,23.92,199.08,31.25    l-0.03-160.88c0-2.46-9.07-13.68-53.44-23.74C639.43,699.75,587.72,694.92,532.6,694.92z"/></g><g><path d="M731.75,783.12c-1.31-2.94-14.5-12.3-59.16-20.18c-38.15-6.74-87.86-10.45-139.99-10.45    c-52.13,0-101.84,3.71-139.99,10.45c-44.66,7.89-57.84,17.24-59.16,20.18c0.03-0.06,0.1-0.3,0.1-0.63h-20    c0-16.94,22.04-29.05,69.35-38.1c40.09-7.67,93.25-11.9,149.69-11.9c56.45,0,109.61,4.22,149.7,11.9    c47.31,9.05,69.35,21.16,69.35,38.1h-20C731.65,782.82,731.73,783.06,731.75,783.12z"/></g></g><text x="0" y="1039" fill="#000000" font-size="5px" font-weight="bold" font-family="'Helvetica Neue', Helvetica, Arial-Unicode, Arial, Sans-serif">Created by IconPai</text><text x="0" y="1044" fill="#000000" font-size="5px" font-weight="bold" font-family="'Helvetica Neue', Helvetica, Arial-Unicode, Arial, Sans-serif">from the Noun Project</text></svg>