<svg xmlns="http://www.w3.org/2000/svg" xmlns:xlink="http://www.w3.org/1999/xlink" version="1.1" x="0px" y="0px" viewBox="0 0 1024 1280" style="enable-background:new 0 0 1024 1024;" xml:space="preserve"><g><g><path d="M292.33,437.63c-2.56,0-5.12-0.98-7.07-2.93l-23.39-23.39c-19.76,5.82-40.7,6.58-60.94,2.17    c-22.94-4.99-43.88-16.44-60.55-33.11c-18.82-18.82-30.8-42.65-34.64-68.92c-0.51-3.48,0.85-6.98,3.58-9.2    c2.73-2.22,6.43-2.85,9.74-1.64l74.89,27.27c1.93,0.71,4.11,0.45,5.83-0.68l38.84-25.48c2.44-1.6,3.51-4.56,2.68-7.35l-13.36-44.5    c-0.59-1.96-2.1-3.55-4.03-4.26l-74.62-27.18c-3.32-1.21-5.75-4.07-6.4-7.54c-0.66-3.47,0.57-7.02,3.21-9.36    c48.41-42.68,122.11-40.33,167.8,5.35c16.67,16.67,28.12,37.61,33.11,60.55c4.41,20.24,3.64,41.18-2.17,60.94l54.88,54.88    c2.39,2.39,3.41,5.83,2.71,9.13c-0.7,3.31-3.02,6.04-6.17,7.26c-11.75,4.55-23.42,9.92-34.71,15.95c-3.1,1.66-6.84,1.56-9.85-0.24    c-3.01-1.81-4.86-5.06-4.86-8.58v-1.15c0-0.73-0.32-1.29-0.95-1.65c-0.62-0.36-1.25-0.36-1.87-0.01    c-14.28,8.19-28.06,17.49-40.98,27.65c-1.3,1.02-2.58,2.12-3.82,3.3C297.27,436.72,294.8,437.63,292.33,437.63z M264.62,389.92    c2.61,0,5.17,1.02,7.07,2.93l21.25,21.25c13.01-10.06,26.83-19.31,41.1-27.49c6.84-3.93,15-3.91,21.84,0.04    c2.67,1.55,4.93,3.57,6.68,5.94c4.11-2.01,8.25-3.94,12.41-5.78l-48.62-48.62c-2.72-2.72-3.64-6.76-2.36-10.39    c13.04-37.09,3.52-79.01-24.26-106.78c-33.97-33.97-86.46-39.32-126.16-15.03l57.17,20.82c7.84,2.86,13.94,9.33,16.34,17.3    l13.36,44.51c3.4,11.34-0.97,23.32-10.86,29.81l-38.85,25.49c-6.99,4.58-15.83,5.6-23.65,2.74l-57.54-20.95    c4.97,15.19,13.44,28.98,24.98,40.52c27.78,27.77,69.7,37.29,106.78,24.26C262.39,390.1,263.51,389.92,264.62,389.92z"/></g><g><path d="M731.67,437.63c-2.47,0-4.94-0.91-6.87-2.73c-1.24-1.18-2.53-2.28-3.81-3.29c-12.93-10.17-26.72-19.47-40.99-27.66    c-0.63-0.36-1.25-0.36-1.87,0c-0.63,0.37-0.95,0.92-0.95,1.65v1.15c0,3.51-1.84,6.77-4.86,8.58c-3.02,1.81-6.76,1.9-9.86,0.24    c-11.25-6.02-22.93-11.38-34.71-15.96c-3.15-1.22-5.47-3.95-6.17-7.26c-0.7-3.31,0.32-6.74,2.71-9.13l54.88-54.87    c-5.82-19.77-6.58-40.7-2.17-60.94c4.99-22.94,16.44-43.88,33.11-60.55c45.69-45.68,119.39-48.03,167.8-5.35    c2.65,2.33,3.87,5.89,3.21,9.36c-0.66,3.47-3.09,6.33-6.4,7.54l-74.63,27.18c-1.93,0.7-3.44,2.3-4.02,4.26l-13.36,44.51    c-0.84,2.79,0.24,5.74,2.68,7.35l38.84,25.49c1.72,1.12,3.89,1.38,5.81,0.68l74.9-27.27c3.31-1.2,7-0.58,9.74,1.64    c2.73,2.22,4.09,5.72,3.58,9.2c-3.84,26.27-15.82,50.1-34.64,68.92c-16.68,16.67-37.61,28.12-60.55,33.11    c-20.24,4.41-41.17,3.64-60.94-2.17l-23.39,23.39C736.79,436.65,734.23,437.63,731.67,437.63z M679.07,383.67    c3.74,0,7.48,0.98,10.89,2.94c14.27,8.18,28.08,17.42,41.1,27.49l21.25-21.25c2.72-2.72,6.75-3.64,10.39-2.36    c37.08,13.04,79,3.51,106.78-24.26c11.54-11.54,20.01-25.33,24.97-40.52l-57.55,20.96c-7.81,2.85-16.65,1.83-23.63-2.74    l-38.86-25.5c-9.89-6.5-14.26-18.48-10.86-29.81l13.36-44.52c2.39-7.97,8.5-14.44,16.33-17.3l57.18-20.82    c-39.69-24.29-92.18-18.95-126.16,15.03c-27.77,27.77-37.29,69.69-24.26,106.78c1.28,3.63,0.36,7.67-2.36,10.39l-48.62,48.61    c4.17,1.84,8.31,3.77,12.42,5.79c1.75-2.36,4.01-4.39,6.68-5.93C671.54,384.66,675.31,383.67,679.07,383.67z"/></g><g><path d="M841.61,749.43H182.39c-5.52,0-10-4.48-10-10v-41.81c0-86.43,32.49-168.78,91.48-231.87c2.8-3,7.16-3.98,10.98-2.47    c3.82,1.51,6.33,5.2,6.33,9.3v98.75h-20v-71.82c-44.53,56.26-68.79,125.66-68.79,198.11v31.81h639.22v-31.81    c0-72.45-24.26-141.85-68.79-198.11v71.82h-20v-98.75c0-4.11,2.51-7.79,6.33-9.3c3.81-1.51,8.17-0.53,10.98,2.47    c58.99,63.09,91.48,145.44,91.48,231.87v41.81C851.61,744.95,847.13,749.43,841.61,749.43z"/></g><g><path d="M677.18,508.26h-20v-95.45c-29.49-15.07-60.98-25.38-93.69-30.67c-4.66-0.75-8.16-4.66-8.39-9.37l-0.12-2.39    c-0.22-4.18-0.34-6.48-0.34-11.75c0-3.67-2.99-6.66-6.66-6.66h-71.96c-1.78,0-3.45,0.69-4.71,1.95c-1.26,1.26-1.95,2.93-1.95,4.71    c0,5.27-0.12,7.57-0.34,11.75l-0.12,2.39c-0.24,4.71-3.73,8.62-8.39,9.37c-32.71,5.29-64.2,15.6-93.69,30.67v95.45h-20V406.75    c0-3.69,2.03-7.08,5.28-8.82c30.56-16.34,63.22-27.81,97.2-34.14c0.04-1.45,0.06-3.01,0.06-5.16c0-7.12,2.77-13.81,7.81-18.85    c5.04-5.04,11.73-7.81,18.85-7.81h71.96c14.7,0,26.66,11.96,26.66,26.66c0,2.16,0.02,3.72,0.06,5.16    c33.98,6.33,66.64,17.8,97.2,34.14c3.25,1.74,5.28,5.13,5.28,8.82V508.26z"/></g><g><path d="M641.58,686.53l-7.65-69.99c-2.65-24.25-10.82-48.02-23.63-68.75l-1.51-2.45c-17.62-28.53-31.19-59.35-40.35-91.59    c-7.48-26.36-11.97-53.61-13.34-80.98l19.97-1c1.29,25.87,5.54,51.61,12.6,76.52c8.65,30.46,21.48,59.58,38.13,86.55l1.51,2.45    c14.35,23.23,23.52,49.89,26.49,77.08l7.65,69.99L641.58,686.53z"/></g><g><path d="M382.42,686.53l-19.88-2.17l7.65-69.99c2.97-27.19,12.13-53.85,26.49-77.08l1.5-2.44    c30.31-49.08,47.86-105.46,50.74-163.07l19.97,1c-3.05,60.97-21.62,120.64-53.7,172.58l-1.5,2.44    c-12.81,20.73-20.98,44.5-23.63,68.75L382.42,686.53z"/></g><g><path d="M281.17,571.33h-20v-94.48c0-24,10.75-46.23,29.48-60.97c13.7-10.78,28.29-20.63,43.38-29.28    c6.85-3.93,15.02-3.91,21.85,0.05c6.84,3.96,10.93,11.05,10.93,18.95v102.66h-20V405.61c0-0.73-0.32-1.28-0.95-1.65    c-0.62-0.36-1.25-0.36-1.88-0.01c-14.25,8.17-28.03,17.47-40.96,27.65c-13.89,10.93-21.85,27.42-21.85,45.25V571.33z"/></g><g><path d="M762.83,571.33h-20v-94.48c0-17.83-7.96-34.32-21.85-45.25c-12.93-10.18-26.72-19.48-40.96-27.65    c-0.62-0.36-1.25-0.35-1.88,0.01c-0.63,0.37-0.95,0.92-0.95,1.65v102.66h-20V405.61c0-7.9,4.08-14.99,10.93-18.95    c6.83-3.96,15-3.98,21.85-0.05c15.09,8.65,29.69,18.5,43.38,29.28c18.74,14.74,29.48,36.96,29.48,60.97V571.33z"/></g><g><path d="M749.86,853.07c-5.73,0-11.47-0.28-17.22-0.86l-27.26-2.72c-128.31-12.79-258.44-12.79-386.75,0l-27.26,2.72    c-41.25,4.11-82.69-6.68-116.69-30.4l-27.9-19.46c-6.61-4.61-10.55-12.17-10.55-20.23v-19.76c0-10.51,6.68-19.88,16.61-23.31    l26.29-9.08c1.05-0.36,2.15-0.55,3.26-0.55h659.22c1.11,0,2.21,0.19,3.26,0.55l26.29,9.08c9.94,3.43,16.61,12.8,16.61,23.31v19.76    c0,8.06-3.94,15.62-10.55,20.23l-27.9,19.46C820.06,842.22,785.28,853.07,749.86,853.07z M512,819.9    c65.27,0,130.54,3.23,195.36,9.69l27.26,2.72c36.5,3.64,73.18-5.92,103.26-26.9l27.9-19.46c1.25-0.87,1.99-2.3,1.99-3.82v-19.76    c0-1.99-1.26-3.76-3.14-4.41l-24.7-8.53H184.07l-24.7,8.53c-1.88,0.65-3.14,2.42-3.14,4.41v19.76c0,1.52,0.75,2.95,2,3.82    l27.9,19.46c30.09,20.99,66.76,30.54,103.26,26.9l27.26-2.72C381.46,823.13,446.73,819.9,512,819.9z"/></g></g><text x="0" y="1039" fill="#000000" font-size="5px" font-weight="bold" font-family="'Helvetica Neue', Helvetica, Arial-Unicode, Arial, Sans-serif">Created by IconPai</text><text x="0" y="1044" fill="#000000" font-size="5px" font-weight="bold" font-family="'Helvetica Neue', Helvetica, Arial-Unicode, Arial, Sans-serif">from the Noun Project</text></svg>