<svg xmlns="http://www.w3.org/2000/svg" xmlns:xlink="http://www.w3.org/1999/xlink" version="1.1" x="0px" y="0px" viewBox="0 0 1024 1280" style="enable-background:new 0 0 1024 1024;" xml:space="preserve"><g><g><path d="M494.48,819.83c-0.44,0-0.88-0.03-1.32-0.09c-87.92-11.69-173.64-51.53-241.37-112.2    c-67.66-60.6-118.12-142.74-142.08-231.3c-0.9-3.33-0.02-6.89,2.32-9.41c50.21-54.11,112.06-98.27,178.87-127.7    c68.3-30.09,142.05-44.82,213.26-42.61c3.34,0.1,6.41,1.87,8.17,4.7c48.44,77.62,74.18,170.39,72.49,261.23    c-1.69,90.91-30.88,180.82-82.18,253.17C500.74,818.28,497.69,819.83,494.48,819.83z M130.5,476.37    c23.53,82.82,71.19,159.45,134.64,216.27c63.22,56.63,142.79,94.28,224.66,106.42c46.85-68.23,73.45-152.13,75.03-237    c1.58-85.24-22.05-172.27-66.65-245.7C364.85,313.87,228.15,373.37,130.5,476.37z"/></g><g><path d="M395.45,690.71c-14.59,0-29.26-2.95-43.33-8.86c-28.11-11.81-50.45-34.04-62.88-62.58c-0.38-0.86-0.74-1.73-1.09-2.6    c-1.63-4.08-0.41-8.74,3-11.49c3.41-2.76,8.23-2.97,11.87-0.51c22.01,14.82,62.49,13.59,100.73-3.07    c38.23-16.66,66.69-45.46,70.83-71.68c0.68-4.33,4.12-7.72,8.46-8.34c4.34-0.62,8.58,1.66,10.46,5.63c0.4,0.85,0.79,1.7,1.16,2.56    c0,0,0,0,0,0.01c12.44,28.54,13.5,60.03,3.01,88.67c-10.56,28.8-31.52,51.26-59.04,63.25    C424.82,687.7,410.18,690.71,395.45,690.71z M320.14,632.66c10.36,13.52,23.95,24.12,39.72,30.75    c23.19,9.74,48.33,9.72,70.79-0.07c22.46-9.78,39.59-28.18,48.25-51.79c5.89-16.07,7.38-33.24,4.53-50.04    c-14.01,23.13-39.67,44.46-71.7,58.42C379.72,633.88,346.61,638.15,320.14,632.66z"/></g><g><path d="M404.21,493.13c-4.05,0-7.75-2.46-9.28-6.28c-13.88-34.63-3.52-71.01,23.58-82.82c27.11-11.81,60.8,5.37,76.71,39.11    c1.92,4.06,0.89,8.9-2.51,11.83c-3.4,2.93-8.34,3.25-12.07,0.76c-9.2-6.12-25.07-6.01-39.48,0.27    c-14.42,6.28-25.31,17.83-27.08,28.73c-0.72,4.43-4.31,7.84-8.77,8.33C404.94,493.11,404.57,493.13,404.21,493.13z M436.49,420.33    c-3.46,0-6.83,0.66-9.99,2.03c-10.92,4.76-17.21,17.19-17.65,31.92c6.47-6.7,14.76-12.44,24.32-16.61    c9.56-4.16,19.41-6.32,28.73-6.5C454.02,424.28,444.98,420.33,436.49,420.33z"/></g><g><path d="M234.71,566.98c-4.05,0-7.75-2.46-9.28-6.28c-13.88-34.63-3.52-71.01,23.59-82.82c27.1-11.81,60.8,5.37,76.71,39.11    c1.92,4.06,0.89,8.9-2.51,11.83c-3.4,2.93-8.33,3.25-12.07,0.76c-9.2-6.12-25.07-6.01-39.48,0.27    c-14.42,6.28-25.3,17.83-27.08,28.73c-0.72,4.43-4.31,7.84-8.77,8.33C235.44,566.96,235.07,566.98,234.71,566.98z M267,494.18    c-3.46,0-6.83,0.66-9.99,2.03c-10.92,4.76-17.21,17.19-17.65,31.92c6.47-6.7,14.76-12.45,24.32-16.61    c9.56-4.16,19.41-6.32,28.73-6.5C284.53,498.12,275.49,494.18,267,494.18z"/></g><g><path d="M867.67,876.22h-255.8c-3.07,0-5.97-1.41-7.87-3.83c-1.9-2.42-2.57-5.57-1.84-8.56l28.25-114.88    c3.6-14.64,16.65-24.87,31.73-24.87h155.28c15.08,0,28.13,10.23,31.73,24.88l28.24,114.88c0.73,2.98,0.05,6.14-1.84,8.56    S870.74,876.22,867.67,876.22z M624.63,856.22h230.28l-25.19-102.49c-1.4-5.68-6.46-9.65-12.31-9.65H662.14    c-5.85,0-10.91,3.97-12.31,9.65L624.63,856.22z"/></g><g><path d="M637.88,464.8c-1.71,0-3.43-0.44-4.97-1.32c-3.11-1.78-5.03-5.09-5.03-8.68c0-0.76,0.09-1.54,0.26-2.28l25.02-107.23    l-84.42-66.17c-3.16-2.48-4.53-6.6-3.49-10.47c1.04-3.87,4.3-6.75,8.28-7.3l108.42-15.06l48.98-93.14    c1.75-3.33,5.23-5.44,8.99-5.34c3.76,0.05,7.18,2.21,8.84,5.58l45.7,92.9l111.54,15.06c4.04,0.55,7.35,3.5,8.36,7.45    c1,3.96-0.5,8.13-3.8,10.53l-87.29,63.74l18.25,70.92c0,0,0,0,0,0l9.84,38.29c0.21,0.81,0.32,1.65,0.32,2.49    c0,3.59-1.92,6.91-5.03,8.69c-3.11,1.78-6.94,1.77-10.03-0.04l-96.83-56.88l-96.83,56.89C641.38,464.34,639.63,464.8,637.88,464.8    z M599.61,277.91l70.9,55.57c3.06,2.4,4.45,6.36,3.57,10.14l-21.17,90.75l81.8-48.06c3.13-1.84,7-1.84,10.13,0L826,433.98    l-23.8-92.51c-1.02-3.97,0.48-8.15,3.79-10.57l72.69-53.08l-92.18-12.45c-3.3-0.45-6.16-2.51-7.63-5.5l-39.38-80.05l-42.22,80.29    c-1.5,2.85-4.28,4.81-7.47,5.25L599.61,277.91z"/></g><g><path d="M772.34,744.08H707.2c-4.79,0-8.91-3.4-9.82-8.11l-55.33-287.5c-0.8-4.16,1.1-8.37,4.75-10.51l87.9-51.64    c3.13-1.84,7-1.84,10.13,0l87.9,51.63c3.65,2.14,5.56,6.36,4.76,10.51l-55.33,287.51C781.26,740.67,777.14,744.08,772.34,744.08z     M715.45,724.08h48.63l52.43-272.46l-76.75-45.08l-76.75,45.09L715.45,724.08z"/></g><g><rect x="729.77" y="469.37" width="20" height="264.7"/></g><g><rect x="695.65" y="790.15" width="88.24" height="20"/></g></g><text x="0" y="1039" fill="#000000" font-size="5px" font-weight="bold" font-family="'Helvetica Neue', Helvetica, Arial-Unicode, Arial, Sans-serif">Created by IconPai</text><text x="0" y="1044" fill="#000000" font-size="5px" font-weight="bold" font-family="'Helvetica Neue', Helvetica, Arial-Unicode, Arial, Sans-serif">from the Noun Project</text></svg>