<svg xmlns="http://www.w3.org/2000/svg" xmlns:xlink="http://www.w3.org/1999/xlink" version="1.1" x="0px" y="0px" viewBox="0 0 1024 1280" style="enable-background:new 0 0 1024 1024;" xml:space="preserve"><g><g><path d="M789.22,884.18h-285.4c-16.1,0-29.19-14.11-29.19-31.46V442.92c0-17.35,14.11-31.47,31.46-31.47h283.12    c16.1,0,29.2,14.12,29.2,31.47v409.79C818.42,870.06,805.32,884.18,789.22,884.18z M506.09,431.45c-6.32,0-11.46,5.15-11.46,11.47    v409.79c0,6.32,4.12,11.46,9.19,11.46h285.4c5.07,0,9.2-5.14,9.2-11.46V442.92c0-6.33-4.13-11.47-9.2-11.47H506.09z"/></g><g><path d="M484.63,452.92c-5.52,0-10-4.48-10-10c0-17.35,13.1-31.47,29.19-31.47h2.27c5.52,0,10,4.48,10,10s-4.48,10-10,10    c-6.32,0-11.46,5.15-11.46,11.47C494.63,448.45,490.15,452.92,484.63,452.92z"/></g><g><path d="M484.63,849.56H246.62c-22.63,0-41.05-18.41-41.05-41.05V180.87c0-22.63,18.41-41.04,41.05-41.04h439.79    c22.63,0,41.05,18.41,41.05,41.04v240.58c0,5.52-4.48,10-10,10H506.09c-6.32,0-11.46,5.15-11.46,11.47v396.63    C494.63,845.08,490.15,849.56,484.63,849.56z M246.62,159.82c-11.6,0-21.05,9.44-21.05,21.04v627.65    c0,11.6,9.44,21.05,21.05,21.05h228.01V442.92c0-17.35,14.11-31.47,31.46-31.47h201.36V180.87c0-11.6-9.44-21.04-21.05-21.04    H246.62z"/></g><g><path d="M741.22,581.5H551.83c-5.52,0-10-4.48-10-10v-80.2c0-5.52,4.48-10,10-10h189.39c5.52,0,10,4.48,10,10v80.2    C751.22,577.02,746.74,581.5,741.22,581.5z M561.83,561.5h169.39v-60.2H561.83V561.5z"/></g><g><path d="M741.22,814.33H706c-5.52,0-10-4.48-10-10v-77.61c0-5.52,4.48-10,10-10h35.22c5.52,0,10,4.48,10,10v77.61    C751.22,809.86,746.74,814.33,741.22,814.33z M716,794.33h15.22v-57.61H716V794.33z"/></g><g><rect x="551.83" y="716.72" width="35.22" height="20"/></g><g><rect x="551.83" y="794.33" width="35.22" height="20"/></g><g><rect x="628.91" y="716.72" width="35.22" height="20"/></g><g><rect x="551.83" y="639.11" width="35.22" height="20"/></g><g><rect x="628.91" y="639.11" width="35.22" height="20"/></g><g><rect x="706" y="639.11" width="35.22" height="20"/></g><g><rect x="628.91" y="794.33" width="35.22" height="20"/></g><g><rect x="484.63" y="310.56" width="109.6" height="20"/></g><g><rect x="484.63" y="240.71" width="150.05" height="20"/></g><g><rect x="295.77" y="622.29" width="109.6" height="20"/></g><g><rect x="295.77" y="723.17" width="109.6" height="20"/></g><g><rect x="295.77" y="521.4" width="109.6" height="20"/></g><g><rect x="340.57" y="382.31" width="20" height="31.04"/></g><g><rect x="340.57" y="219.02" width="20" height="31.04"/></g><g><path d="M362.49,392.31h-23.84c-22.93,0-41.59-18.16-41.59-40.48h20c0,11.29,9.69,20.48,21.59,20.48h23.84    c13.38,0,24.27-10.35,24.27-23.06c0-6.09-2.48-11.84-6.98-16.18c-4.6-4.44-10.74-6.88-17.29-6.88h-23.84    c-24.41,0-44.27-19.32-44.27-43.06c0-11.57,4.65-22.43,13.09-30.57c8.35-8.05,19.42-12.49,31.17-12.49h23.84    c22.94,0,41.59,18.16,41.59,40.48h-20c0-11.29-9.69-20.48-21.59-20.48h-23.84c-6.55,0-12.69,2.44-17.29,6.88    c-4.5,4.34-6.98,10.09-6.98,16.18c0,12.72,10.89,23.06,24.27,23.06h23.84c11.76,0,22.83,4.44,31.18,12.49    c8.44,8.15,13.09,19,13.09,30.57C406.76,372.99,386.9,392.31,362.49,392.31z"/></g></g><text x="0" y="1039" fill="#000000" font-size="5px" font-weight="bold" font-family="'Helvetica Neue', Helvetica, Arial-Unicode, Arial, Sans-serif">Created by IconPai</text><text x="0" y="1044" fill="#000000" font-size="5px" font-weight="bold" font-family="'Helvetica Neue', Helvetica, Arial-Unicode, Arial, Sans-serif">from the Noun Project</text></svg>