<svg xmlns="http://www.w3.org/2000/svg" xmlns:xlink="http://www.w3.org/1999/xlink" version="1.1" x="0px" y="0px" viewBox="0 0 1024 1280" style="enable-background:new 0 0 1024 1024;" xml:space="preserve"><g><g><rect x="379" y="698.78" width="266" height="20"/></g><g><path d="M350.32,636.05c-23.84,0-47.49-3.15-70.29-9.35c-55.53-15.09-105.63-48.58-141.09-94.31C102.34,485.19,83,428.6,83,368.73    c0-15.24,1.3-30.51,3.85-45.4c9.96-58.24,39.64-112.34,83.58-152.34c49.28-44.87,113.17-69.58,179.88-69.58    s130.6,24.71,179.88,69.58c43.94,40,73.63,94.1,83.59,152.34c2.55,14.89,3.85,30.16,3.85,45.39c0,59.87-19.34,116.46-55.94,163.66    c-35.46,45.73-85.56,79.22-141.08,94.31C397.81,632.9,374.16,636.05,350.32,636.05z M350.32,121.41    c-61.72,0-120.82,22.86-166.42,64.37c-40.66,37.01-68.13,87.06-77.34,140.93c-2.37,13.78-3.56,27.92-3.56,42.02    c0,111.36,74.95,209.51,182.27,238.67c21.1,5.74,42.98,8.65,65.04,8.65s43.95-2.91,65.04-8.65    c107.32-29.17,182.28-127.31,182.28-238.67c0-14.11-1.2-28.24-3.56-42.02c0,0,0,0,0-0.01c-9.21-53.87-36.68-103.92-77.33-140.93    C471.14,144.27,412.04,121.41,350.32,121.41z M389.92,562.88c-4.57,0-8.68-3.15-9.74-7.78c-3.28-14.39-4.95-29.27-4.95-44.2    c0-45.65,15.89-90.21,44.74-125.49c28.45-34.78,68.18-59.08,111.87-68.44c5.35-1.15,10.63,2.22,11.84,7.56    c3.28,14.4,4.95,29.26,4.95,44.19c0,45.65-15.89,90.21-44.74,125.49c-28.45,34.78-68.18,59.09-111.87,68.44    C391.32,562.81,390.62,562.88,389.92,562.88z M526.16,338.95C449.71,360,395.24,430.74,395.24,510.9c0,10.02,0.83,20,2.47,29.79    c76.44-21.06,130.93-91.8,130.93-171.96C528.64,358.71,527.81,348.74,526.16,338.95z M310.71,562.88c-0.69,0-1.4-0.07-2.1-0.22    c-43.69-9.36-83.43-33.66-111.88-68.44c-28.85-35.27-44.74-79.84-44.74-125.49c0-14.93,1.66-29.8,4.95-44.19    c1.22-5.33,6.5-8.7,11.84-7.56c43.69,9.35,83.42,33.66,111.87,68.44c28.86,35.27,44.75,79.84,44.75,125.49    c0,14.94-1.66,29.81-4.95,44.2C319.4,559.73,315.28,562.88,310.71,562.88z M174.46,338.95c-1.64,9.79-2.47,19.77-2.47,29.78    c0,80.16,54.48,150.91,130.94,171.96c1.64-9.79,2.47-19.77,2.47-29.79C305.4,430.74,250.92,360,174.46,338.95z M350.32,302.54    c-53.48,0-103.62-20.97-141.18-59.04c-3.84-3.89-3.84-10.15,0-14.04c37.54-38.08,87.68-59.05,141.18-59.05    c53.49,0,103.62,20.97,141.18,59.05c3.84,3.89,3.84,10.15,0,14.04C453.93,281.57,403.79,302.54,350.32,302.54z M230.7,236.48    c32.83,29.78,74.93,46.06,119.62,46.06c44.68,0,86.78-16.28,119.62-46.06c-32.83-29.78-74.92-46.07-119.62-46.07    C305.62,190.41,263.52,206.69,230.7,236.48z"/></g><g><path d="M829.29,536.33H533.33l12.51-16.13c33.88-43.67,51.79-96.05,51.79-151.47c0-2.91-0.06-5.96-0.17-9.05l-0.37-10.35h51.49    c26.04,0,51.52,7.22,73.69,20.89c22.17,13.66,40.07,33.18,51.77,56.45l47.86,95.14L829.29,536.33z M573.25,516.33h223.52    l-40.59-80.68c-20.58-40.91-61.8-66.32-107.59-66.32h-30.96C617.53,422.33,602.25,472.75,573.25,516.33z"/></g><g><path d="M808.75,867.9c-7.06,0-14.06-2.26-19.81-6.42l-54.43-39.4l-445.07-1.97l-54.66,39.56c-5.81,4.21-12.67,6.43-19.83,6.43    h-71.83c-10.1,0-19.94-2.84-28.46-8.21c-9.98-6.27-17.45-15.44-21.6-26.49l-2.85-7.62c-4.79-12.8-7.21-26.21-7.21-39.87V675.58    c0-24.73,6.33-49.24,18.32-70.87c11.99-21.63,29.41-39.99,50.38-53.1l19.48-12.17l5.62,5.54c27.6,27.17,61.57,47.71,98.24,59.41    c3.42,1.09,6.86,2.1,10.22,3.01c21.1,5.74,42.98,8.65,65.06,8.65c22.07,0,43.96-2.91,65.04-8.65    c51.34-13.95,97.68-44.92,130.49-87.2l3-3.87h267.02l56.42,35.28c20.97,13.11,38.39,31.47,50.38,53.1    c11.99,21.63,18.33,46.14,18.33,70.87v108.34c0,13.67-2.43,27.08-7.23,39.87l-2.85,7.61c-4.07,10.88-11.74,20.29-21.6,26.5    c-8.47,5.34-18.26,8.18-28.32,8.21l-71.38,1.79C809.33,867.9,809.04,867.9,808.75,867.9z M283,800.08l458.03,2.03l59.64,43.17    c2.44,1.77,5.44,2.7,8.44,2.62l71.77-1.79c6.32,0,12.48-1.77,17.79-5.13c6.27-3.95,10.95-9.68,13.53-16.58l2.85-7.61    c3.95-10.54,5.96-21.59,5.96-32.85V675.58c0-43.79-22.17-83.8-59.31-107.01l-51.56-32.24H558.59    c-35.24,43.71-84.05,75.72-137.98,90.37c-22.8,6.2-46.45,9.35-70.29,9.35c-23.85,0-47.5-3.15-70.3-9.35    c-3.63-0.98-7.35-2.08-11.05-3.26c-37.15-11.85-71.73-32.09-100.47-58.74l-6.2,3.88c-37.13,23.21-59.3,63.21-59.3,107.01v108.34    c0,11.25,2,22.31,5.95,32.86l2.85,7.61c2.59,6.91,7.27,12.65,13.53,16.58c5.33,3.36,11.48,5.14,17.8,5.14h71.83    c2.93,0,5.73-0.91,8.11-2.63L283,800.08z"/></g><g><path d="M239.74,922.59h-93.49c-19.99,0-36.26-16.26-36.26-36.26V831.3l15.33,9.67c5.32,3.35,11.47,5.13,17.79,5.13h71.83    c2.93,0,5.73-0.91,8.1-2.63L276,805.15v81.19C276,906.33,259.74,922.59,239.74,922.59z M130,864.47v21.86    c0,8.96,7.29,16.26,16.26,16.26h93.49c8.96,0,16.26-7.29,16.26-16.26v-42.02l-21.22,15.36c-5.81,4.21-12.67,6.43-19.83,6.43    h-71.83C138.67,866.1,134.26,865.55,130,864.47z"/></g><g><path d="M877.74,922.59h-93.49c-19.99,0-36.26-16.26-36.26-36.26v-79.18l52.66,38.13c2.44,1.77,5.44,2.7,8.44,2.61l71.77-1.79    c6.32,0,12.48-1.77,17.79-5.13L914,831.3v55.03C914,906.33,897.74,922.59,877.74,922.59z M768,846.33v40.01    c0,8.96,7.29,16.26,16.26,16.26h93.49c8.96,0,16.26-7.29,16.26-16.26v-21.87c-4.22,1.07-8.58,1.62-13,1.63l-71.38,1.79    c-7.33,0.2-14.7-2.08-20.68-6.4L768,846.33z"/></g><g><path d="M721.24,660.91l-13.75-14.52c39.04-36.96,71.56-79.8,96.66-127.33l17.69,9.34C795.71,577.86,761.87,622.45,721.24,660.91z    "/></g><g><path d="M843.97,740.78h-99.11v-10c0-43.96,35.77-79.73,79.73-79.73h34.74c12.02,0,21.8,9.78,21.8,21.8v30.77    C881.13,724.11,864.46,740.78,843.97,740.78z M765.7,720.78h78.27c9.46,0,17.16-7.7,17.16-17.16v-30.77c0-0.99-0.81-1.8-1.8-1.8    h-34.74C795.06,671.05,770.47,692.59,765.7,720.78z"/></g><g><path d="M886.39,531.89h-87.16v-10c0-38.81,31.57-70.38,70.38-70.38h30.08c11.15,0,20.22,9.07,20.22,20.22v26.64    C919.91,516.85,904.88,531.89,886.39,531.89z M820.23,511.89h66.16c7.45,0,13.52-6.06,13.52-13.52v-26.64    c0-0.12-0.1-0.22-0.22-0.22h-30.08C845.26,471.51,824.88,488.89,820.23,511.89z"/></g><g><path d="M279.13,740.78h-99.11c-20.49,0-37.16-16.67-37.16-37.16v-30.77c0-12.02,9.78-21.8,21.8-21.8h34.74    c43.96,0,79.73,35.77,79.73,79.73V740.78z M164.66,671.05c-0.99,0-1.8,0.81-1.8,1.8v30.77c0,9.46,7.7,17.16,17.16,17.16h78.27    c-4.77-28.19-29.37-49.73-58.89-49.73H164.66z"/></g></g><text x="0" y="1039" fill="#000000" font-size="5px" font-weight="bold" font-family="'Helvetica Neue', Helvetica, Arial-Unicode, Arial, Sans-serif">Created by IconPai</text><text x="0" y="1044" fill="#000000" font-size="5px" font-weight="bold" font-family="'Helvetica Neue', Helvetica, Arial-Unicode, Arial, Sans-serif">from the Noun Project</text></svg>