<svg xmlns="http://www.w3.org/2000/svg" xmlns:xlink="http://www.w3.org/1999/xlink" version="1.1" x="0px" y="0px" viewBox="0 0 1024 1280" style="enable-background:new 0 0 1024 1024;" xml:space="preserve"><g><g><path d="M439.62,422.22l-58.38-58.38c-3.91-3.91-3.91-10.24,0-14.14l58.38-58.38l14.14,14.14l-51.31,51.31l51.31,51.31    L439.62,422.22z"/></g><g><path d="M584.38,422.22l-14.14-14.14l51.31-51.31l-51.31-51.31l14.14-14.14l58.38,58.38c3.9,3.91,3.9,10.24,0,14.14L584.38,422.22    z"/></g><g><rect x="447.35" y="346.77" transform="matrix(0.335 -0.9422 0.9422 0.335 4.3427 719.6879)" width="129.3" height="20"/></g><g><path d="M830.2,779.33H193.8c-32.82,0-59.52-26.7-59.52-59.52v-440.2c0-32.82,26.7-59.52,59.52-59.52h89.72v20H193.8    c-21.79,0-39.52,17.73-39.52,39.52v440.2c0,21.79,17.73,39.52,39.52,39.52h636.4c21.79,0,39.52-17.73,39.52-39.52v-440.2    c0-21.79-17.73-39.52-39.52-39.52h-89.72v-20h89.72c32.82,0,59.52,26.7,59.52,59.52v440.2    C889.72,752.63,863.02,779.33,830.2,779.33z"/></g><g><path d="M586.68,890.72H437.31c-5.52,0-10-4.48-10-10V769.33c0-5.52,4.48-10,10-10h149.37c5.52,0,10,4.48,10,10v111.39    C596.68,886.24,592.2,890.72,586.68,890.72z M447.31,870.72h129.37v-91.39H447.31V870.72z"/></g><g><rect x="144.28" y="653.17" width="735.44" height="20"/></g><g><rect x="364.09" y="870.72" width="295.82" height="20"/></g><g><path d="M537.94,580.25h-51.87c-10.64,0-19.72-7.95-21.14-18.49l-2.38-17.68c-0.07-0.53-0.48-0.97-1.03-1.12    c-15.86-4.29-31.16-10.63-45.45-18.84c-0.5-0.29-1.11-0.27-1.53,0.06l-14.2,10.83c-8.45,6.45-20.5,5.65-28.02-1.87l-36.69-36.68    c-7.52-7.52-8.33-19.57-1.87-28.02l10.84-14.2c0.33-0.43,0.35-1.03,0.06-1.53c-8.21-14.29-14.55-29.58-18.84-45.45    c-0.15-0.56-0.59-0.96-1.12-1.03L307,403.84c-10.54-1.42-18.49-10.5-18.49-21.14v-51.87c0-10.64,7.95-19.73,18.49-21.14    l17.68-2.38c0.53-0.07,0.97-0.48,1.12-1.03c4.29-15.87,10.63-31.16,18.84-45.45c0.29-0.5,0.27-1.11-0.06-1.53l-10.84-14.2    c-6.45-8.46-5.65-20.5,1.87-28.02l36.68-36.69c7.52-7.52,19.57-8.33,28.02-1.87l14.2,10.84c0.43,0.32,1.03,0.35,1.53,0.06    c14.29-8.21,29.58-14.55,45.45-18.84c0.55-0.15,0.96-0.59,1.03-1.12l2.38-17.68c1.42-10.54,10.5-18.49,21.14-18.49h51.87    c10.64,0,19.72,7.95,21.14,18.49l2.37,17.68c0.07,0.53,0.48,0.97,1.03,1.12c15.87,4.29,31.16,10.63,45.45,18.84    c0.5,0.29,1.11,0.27,1.53-0.06l14.2-10.84c8.45-6.45,20.5-5.65,28.02,1.87l36.69,36.68c7.52,7.52,8.33,19.57,1.87,28.02    l-10.83,14.2c-0.33,0.43-0.35,1.03-0.06,1.53c8.21,14.29,14.55,29.58,18.84,45.45c0.15,0.56,0.59,0.96,1.12,1.03l17.68,2.38    c10.54,1.42,18.49,10.5,18.49,21.14v51.87c0,10.64-7.95,19.73-18.49,21.14l-17.68,2.38c-0.53,0.07-0.97,0.48-1.12,1.03    c-4.29,15.87-10.63,31.16-18.84,45.45c-0.29,0.5-0.27,1.11,0.06,1.53l10.83,14.2c6.45,8.46,5.65,20.5-1.87,28.02l-36.69,36.69    c-7.52,7.52-19.57,8.33-28.02,1.87l-14.2-10.83c-0.43-0.33-1.03-0.35-1.53-0.06c-14.29,8.21-29.59,14.55-45.45,18.84    c-0.56,0.15-0.96,0.59-1.03,1.12l-2.37,17.68C557.66,572.3,548.57,580.25,537.94,580.25z M415.32,503.91    c3.67,0,7.37,0.95,10.71,2.87c12.8,7.35,26.5,13.03,40.71,16.87c8.35,2.26,14.49,9.23,15.63,17.77l2.38,17.68    c0.09,0.66,0.65,1.15,1.32,1.15h51.87c0.66,0,1.23-0.5,1.32-1.15l2.37-17.68c1.15-8.53,7.28-15.51,15.63-17.77    c14.21-3.84,27.9-9.52,40.71-16.87c7.51-4.31,16.78-3.72,23.63,1.5l14.2,10.83c0.53,0.4,1.28,0.35,1.75-0.12l36.69-36.68    c0.47-0.47,0.52-1.22,0.12-1.75l-10.83-14.2c-5.22-6.85-5.81-16.12-1.5-23.63c7.35-12.8,13.03-26.5,16.88-40.71    c2.26-8.35,9.23-14.49,17.77-15.63l17.68-2.38c0.66-0.09,1.15-0.66,1.15-1.32v-51.87c0-0.66-0.5-1.23-1.15-1.32l-17.68-2.38    c-8.53-1.15-15.51-7.28-17.77-15.63c-3.84-14.21-9.52-27.91-16.87-40.71c-4.31-7.51-3.72-16.78,1.5-23.63l10.84-14.2    c0.4-0.53,0.35-1.28-0.12-1.75l-36.68-36.68c-0.47-0.47-1.22-0.52-1.75-0.12l-14.2,10.84c-6.85,5.23-16.12,5.82-23.63,1.5    c-12.8-7.36-26.49-13.03-40.7-16.88c-8.35-2.26-14.49-9.23-15.63-17.77l-2.37-17.68c-0.09-0.66-0.66-1.15-1.32-1.15h-51.87    c-0.66,0-1.23,0.5-1.32,1.15l-2.38,17.68c-1.15,8.53-7.28,15.51-15.63,17.77c-14.21,3.84-27.9,9.52-40.7,16.88    c-7.51,4.32-16.78,3.73-23.63-1.5l-14.2-10.84c-0.53-0.4-1.28-0.35-1.75,0.12l-36.68,36.68c-0.47,0.47-0.52,1.22-0.12,1.75    l10.84,14.2c5.23,6.85,5.81,16.12,1.5,23.63c-7.36,12.8-13.03,26.5-16.88,40.7c-2.26,8.35-9.23,14.49-17.77,15.63l-17.68,2.38    c-0.66,0.09-1.15,0.66-1.15,1.32v51.87c0,0.66,0.5,1.23,1.15,1.32l17.68,2.38c8.53,1.15,15.51,7.28,17.77,15.63    c3.84,14.21,9.52,27.9,16.88,40.7c4.31,7.51,3.73,16.78-1.5,23.63l-10.84,14.2c-0.4,0.53-0.35,1.28,0.12,1.75L386.46,519    c0.47,0.47,1.22,0.52,1.75,0.12l14.2-10.83C406.2,505.38,410.74,503.91,415.32,503.91z"/></g><g><rect x="219.34" y="565.63" width="93.87" height="20"/></g><g><rect x="219.34" y="481.13" width="54.72" height="20"/></g><g><rect x="219.34" y="396.63" width="27.36" height="20"/></g><g><rect x="219.34" y="312.13" width="27.36" height="20"/></g><g><rect x="710.79" y="565.63" width="93.87" height="20"/></g><g><rect x="749.94" y="481.13" width="54.72" height="20"/></g><g><rect x="777.3" y="396.63" width="27.36" height="20"/></g><g><rect x="777.3" y="312.13" width="27.36" height="20"/></g></g><text x="0" y="1039" fill="#000000" font-size="5px" font-weight="bold" font-family="'Helvetica Neue', Helvetica, Arial-Unicode, Arial, Sans-serif">Created by IconPai</text><text x="0" y="1044" fill="#000000" font-size="5px" font-weight="bold" font-family="'Helvetica Neue', Helvetica, Arial-Unicode, Arial, Sans-serif">from the Noun Project</text></svg>