<svg xmlns="http://www.w3.org/2000/svg" xmlns:xlink="http://www.w3.org/1999/xlink" version="1.1" x="0px" y="0px" viewBox="0 0 1024 1280" style="enable-background:new 0 0 1024 1024;" xml:space="preserve"><g><g><path d="M923.26,587.2H651.52c-3.44,0-6.63-1.77-8.46-4.68c-1.83-2.91-2.04-6.56-0.55-9.65l135.87-282.86    c1.67-3.47,5.17-5.67,9.01-5.67s7.35,2.2,9.01,5.67l135.87,282.86c1.49,3.1,1.28,6.75-0.55,9.65    C929.89,585.44,926.7,587.2,923.26,587.2z M667.41,567.2h239.95L787.39,317.44L667.41,567.2z"/></g><g><rect x="777.39" y="294.34" width="20" height="282.86"/></g><g><path d="M787.38,689.15c-33.47,0-65.19-10.7-91.74-30.94c-25.69-19.58-44.77-47.37-53.73-78.23c-0.88-3.02-0.28-6.28,1.61-8.79    c1.89-2.51,4.85-3.99,8-3.99h271.74c3.15,0,6.11,1.48,8,4c1.89,2.52,2.48,5.77,1.61,8.79c-8.96,30.86-28.05,58.65-53.74,78.23    C852.57,678.45,820.85,689.15,787.38,689.15z M665.57,587.19c19.91,48.86,68.22,81.96,121.81,81.96    c53.6,0,101.9-33.09,121.82-81.96H665.57z"/></g><g><path d="M668.19,896.42H355.8c-5.52,0-10-4.48-10-10V839c0-14.79,12.03-26.83,26.83-26.83h278.73c14.79,0,26.83,12.03,26.83,26.83    v47.42C678.19,891.95,673.71,896.42,668.19,896.42z M365.8,876.42h292.38V839c0-3.76-3.06-6.83-6.83-6.83H372.63    c-3.76,0-6.83,3.06-6.83,6.83V876.42z"/></g><g><path d="M637.17,832.17H386.82c-5.52,0-10-4.48-10-10v-16.41c0-31.89,25.95-57.84,57.84-57.84h154.67    c31.89,0,57.84,25.95,57.84,57.84v16.41C647.17,827.7,642.69,832.17,637.17,832.17z M396.82,812.17h230.35v-6.41    c0-20.87-16.98-37.84-37.84-37.84H434.66c-20.87,0-37.84,16.98-37.84,37.84V812.17z"/></g><g><path d="M534.15,202.32c-1.51,0-3.03-0.34-4.43-1.03c-5.54-2.73-11.5-4.12-17.72-4.12c-6.23,0-12.19,1.39-17.73,4.12    c-3.1,1.53-6.77,1.35-9.71-0.47c-2.94-1.82-4.72-5.04-4.72-8.49v-32.59c0-17.73,14.42-32.15,32.15-32.15s32.15,14.42,32.15,32.15    v32.59c0,3.46-1.79,6.67-4.72,8.49C537.81,201.81,535.98,202.32,534.15,202.32z M512,147.58c-6.7,0-12.15,5.45-12.15,12.15v18.66    c7.92-1.62,16.38-1.63,24.3,0v-18.66C524.15,153.03,518.7,147.58,512,147.58z"/></g><g><path d="M534.15,767.92h-44.3c-5.52,0-10-4.48-10-10V282.25c0-3.46,1.79-6.67,4.72-8.49c2.94-1.83,6.61-2,9.71-0.47    c5.54,2.73,11.5,4.12,17.73,4.12c6.22,0,12.18-1.39,17.72-4.12c3.1-1.53,6.77-1.35,9.71,0.47c2.94,1.82,4.72,5.04,4.72,8.49    v475.68C544.15,763.45,539.67,767.92,534.15,767.92z M499.84,747.92h24.3V296.18c-7.92,1.63-16.38,1.63-24.3,0V747.92z"/></g><g><path d="M512,297.4c-9.33,0-18.27-2.08-26.58-6.19c-11.8-5.82-21.52-15.54-27.35-27.35c-4.1-8.31-6.19-17.26-6.19-26.58    c0-9.33,2.08-18.27,6.19-26.58c5.82-11.81,15.54-21.52,27.35-27.35c8.31-4.1,17.25-6.18,26.58-6.18c9.32,0,18.26,2.08,26.57,6.19    c11.81,5.81,21.53,15.53,27.36,27.35c4.1,8.31,6.18,17.25,6.18,26.58c0,9.32-2.08,18.27-6.19,26.58    c-5.83,11.81-15.55,21.52-27.36,27.35C530.26,295.32,521.32,297.4,512,297.4z M512,197.16c-6.23,0-12.19,1.39-17.73,4.12    c-7.89,3.89-14.38,10.38-18.27,18.27c-2.74,5.54-4.12,11.5-4.12,17.73c0,6.23,1.39,12.19,4.12,17.73    c3.9,7.89,10.38,14.38,18.27,18.27c5.54,2.73,11.5,4.12,17.73,4.12c6.22,0,12.18-1.39,17.72-4.12    c7.9-3.89,14.39-10.38,18.28-18.27c2.73-5.54,4.12-11.5,4.12-17.73c0-6.23-1.39-12.19-4.12-17.73    c-3.9-7.9-10.38-14.38-18.27-18.27C524.18,198.55,518.22,197.16,512,197.16z"/></g><g><path d="M512,253.87c-9.15,0-16.59-7.44-16.59-16.59s7.44-16.59,16.59-16.59c9.15,0,16.59,7.44,16.59,16.59    S521.14,253.87,512,253.87z M512,233.87c-1.88,0-3.41,1.53-3.41,3.41s1.53,3.41,3.41,3.41s3.41-1.53,3.41-3.41    S513.88,233.87,512,233.87z"/></g><g><path d="M792.01,304.34c-10.65,0-21.91-1.72-33.46-5.18c-16.14-4.85-31.19-12.3-45.75-19.5c-6.09-3.01-12.38-6.13-18.57-8.96    c-35.47-16.19-76.21-23.41-132.12-23.41v-20c39.66,0,91.46,2.87,140.42,25.22c6.48,2.96,12.92,6.14,19.14,9.23    c14.45,7.15,28.1,13.91,42.63,18.27c13.16,3.95,38.28,8.75,58.65-3.46l10.28,17.15C821.44,300.76,807.37,304.34,792.01,304.34z"/></g><g><path d="M372.48,587.2H100.74c-3.44,0-6.63-1.77-8.46-4.68c-1.83-2.91-2.04-6.56-0.55-9.65L227.6,290.01    c1.67-3.47,5.17-5.67,9.01-5.67s7.35,2.2,9.01,5.67L381.5,572.87c1.49,3.1,1.28,6.75-0.55,9.65    C379.12,585.44,375.92,587.2,372.48,587.2z M116.64,567.2h239.95L236.61,317.44L116.64,567.2z"/></g><g><rect x="226.61" y="294.34" width="20" height="282.86"/></g><g><path d="M236.62,689.15c-33.47,0-65.19-10.7-91.74-30.94c-25.69-19.58-44.77-47.37-53.74-78.23c-0.88-3.02-0.28-6.28,1.61-8.79    c1.89-2.51,4.85-4,8-4h271.74c3.15,0,6.11,1.48,8,3.99c1.89,2.52,2.48,5.77,1.61,8.79c-8.96,30.86-28.04,58.65-53.73,78.23    C301.81,678.45,270.08,689.15,236.62,689.15z M114.79,587.19c19.92,48.86,68.23,81.96,121.82,81.96    c53.6,0,101.9-33.09,121.81-81.96H114.79z"/></g><g><path d="M231.99,304.34c-15.35,0-29.43-3.57-41.23-10.65l10.28-17.15c20.37,12.21,45.49,7.41,58.65,3.46    c14.53-4.36,28.17-11.12,42.62-18.27c6.22-3.08,12.66-6.27,19.14-9.23c48.96-22.35,100.76-25.22,140.42-25.22v20    c-55.9,0-96.65,7.22-132.11,23.41c-6.19,2.83-12.49,5.94-18.57,8.96c-14.56,7.21-29.61,14.66-45.75,19.5    C253.9,302.62,242.64,304.34,231.99,304.34z"/></g></g><text x="0" y="1039" fill="#000000" font-size="5px" font-weight="bold" font-family="'Helvetica Neue', Helvetica, Arial-Unicode, Arial, Sans-serif">Created by IconPai</text><text x="0" y="1044" fill="#000000" font-size="5px" font-weight="bold" font-family="'Helvetica Neue', Helvetica, Arial-Unicode, Arial, Sans-serif">from the Noun Project</text></svg>