<svg xmlns="http://www.w3.org/2000/svg" xmlns:xlink="http://www.w3.org/1999/xlink" version="1.1" x="0px" y="0px" viewBox="0 0 1024 1280" style="enable-background:new 0 0 1024 1024;" xml:space="preserve"><g><g><path d="M697.18,352.4c-4.05,0-8.13-0.19-12.26-0.57c-3.47-0.32-6.52-2.42-8.06-5.55c-17.84-36.35-11.52-83.97,16.1-121.31    c22.07-29.83,54.98-52.4,103.59-71.05c4.92-1.89,10.45,0.36,12.66,5.14c18.98,41.03,16.91,90.95-5.38,130.28    C781.09,329.43,741.83,352.4,697.18,352.4z M692.53,332.3c39.27,1.6,74.06-17.85,93.9-52.83c17.62-31.07,20.54-69.83,8.25-103.28    c-39.93,16.46-67.28,35.88-85.63,60.68C687.49,266,681.17,303.58,692.53,332.3z"/></g><g><path d="M615.81,455.64c-5.75,0-11.5-0.4-17.23-1.21c-20.12-2.84-39.42-10.6-55.8-22.47c-32.61-23.61-53.27-63.29-53.9-103.55    c-0.07-4.65,3.07-8.74,7.59-9.86c42.25-10.5,83.32-3.16,115.66,20.68c31.1,22.92,51.38,59.61,54.24,98.14    c0.33,4.39-2.26,8.48-6.37,10.07C645.92,452.88,630.9,455.64,615.81,455.64z M509.33,336.21c2.94,31.23,19.77,61.15,45.19,79.56    c26.65,19.3,60.18,24.89,91.08,15.5c-4.34-29.97-20.91-57.94-45.33-75.94C574.83,336.59,542.81,329.91,509.33,336.21z"/></g><g><path d="M676.71,608.14c-1.99,0-3.97-0.05-5.96-0.14c-5-0.23-9.05-4.12-9.5-9.1c-3.97-44.72,7.22-82.74,32.36-109.95    c24.43-26.44,60.48-41.46,96.47-40.17c4,0.14,7.52,2.65,8.97,6.38c14.41,37.16,5.35,78.39-24.24,110.29    C749.77,592.43,713.47,608.14,676.71,608.14z M782.56,468.74c-27.92,0.88-55.27,13.22-74.26,33.77    c-19.84,21.47-29.14,50.22-27.71,85.56c29.93-1.04,59.14-14.23,79.56-36.24C782.69,527.52,790.82,496.92,782.56,468.74z"/></g><g><path d="M620.05,641.28c-19.59,0-39-5.9-57.24-17.69c-30.37-19.62-51.08-52.22-55.38-87.2c-0.59-4.8,2.34-9.33,6.95-10.77    c39.33-12.25,76.74-8.77,108.17,10.06c29.35,17.58,50.35,46.31,57.61,78.81c0.95,4.23-0.94,8.59-4.68,10.79    C657.42,635.95,638.66,641.28,620.05,641.28z M528.71,542.37c5.6,25.92,21.97,49.57,44.96,64.42    c15.82,10.22,47.22,23.78,85.07,4.86c-7.38-24.2-24-45.35-46.47-58.81C588.06,538.34,559.32,534.77,528.71,542.37z"/></g><g><path d="M687.58,755.28l-19.74-3.24l-0.03,0.21c0.03-0.21,0.05-0.4,0.08-0.59l19.74,3.24l0.03-0.21    C687.63,754.9,687.61,755.09,687.58,755.28z"/></g><g><path d="M670.47,687.18c-1.53-33.35-6.78-67.55-11.86-100.64c-2.04-13.31-4.16-27.07-6.01-40.62    c-8.64-63.29-13.81-144.56,23.16-211.77l17.52,9.64c-34.14,62.08-29.09,139.19-20.87,199.43c1.83,13.38,3.93,27.06,5.96,40.29    c5.16,33.6,10.5,68.35,12.07,102.76L670.47,687.18z"/></g><g><path d="M780.39,862.24c-8.76-57.83-47.62-133.71-104.94-166.86c-1.79-1.03-3.6-2.04-5.42-3.03c7.45,19.02,13.32,38.75,17.52,58.9    c3.48,16.7,5.93,37.34,7.08,59.67l-19.97,1.02c-1.08-21.02-3.45-41.13-6.68-56.62c-5.71-27.42-14.69-53.98-26.68-78.94    c-1.79-3.72-1.1-8.15,1.71-11.16c2.82-3.01,7.2-3.98,11.02-2.45c10.74,4.31,21.32,9.45,31.43,15.28    c65.72,38,105.53,120.56,114.71,181.19L780.39,862.24z"/></g><g><rect x="487.65" y="850.74" width="403.34" height="20"/></g><g><path d="M859.79,866.09c-34.56-54.56-43.68-125.62-25.48-187.81c-31.92,22.2-57.46,57.4-66.71,93.78l-19.38-4.93    C761,716.85,801.45,668.57,848.88,647c3.78-1.72,8.22-0.92,11.17,1.99c2.95,2.92,3.79,7.35,2.12,11.15    c-27.25,61.68-21.55,138.32,14.52,195.25L859.79,866.09z"/></g><g><path d="M592.25,861.99l-19.84-2.5c8.35-66.24-3.56-122.48-38.6-182.38c-2.1-3.58-1.76-8.09,0.84-11.32    c2.61-3.23,6.94-4.52,10.89-3.23c92.18,30.05,155.27,109.62,156.98,197.99l-20,0.39c-1.39-71.74-47.95-137.19-118.35-169.64    C591.37,746.45,600.05,800.12,592.25,861.99z"/></g><g><path d="M525.25,861.65l-19.92-1.82c3.36-36.71-17.82-74.1-50.38-88.92c-3.59-1.63-5.88-5.23-5.86-9.17s2.37-7.5,5.98-9.09    c24.25-10.64,52.51-11.85,77.54-3.34c24.97,8.5,46.93,26.76,60.27,50.11l-17.37,9.92c-10.95-19.17-28.93-34.15-49.35-41.09    c-13.71-4.67-28.61-5.74-42.91-3.3C511.64,787.27,528.63,824.77,525.25,861.65z"/></g><g><path d="M370.22,860.74h-20V656.47h-48.79v204.27h-20V646.47c0-5.52,4.48-10,10-10h68.79c5.52,0,10,4.48,10,10V860.74z"/></g><g><path d="M358.37,656.47h-65.09c-14.59,0-26.46-11.87-26.46-26.46V520.82h-91.68c-28.74,0-52.13-23.39-52.13-52.13v-78.22    c0-5.52,4.48-10,10-10h385.63c5.52,0,10,4.48,10,10v78.22c0,28.74-23.39,52.13-52.13,52.13h-91.69v109.19    C384.82,644.6,372.95,656.47,358.37,656.47z M143.01,400.47v68.22c0,17.72,14.41,32.13,32.13,32.13h98.93    c7.03,0,12.75,5.72,12.75,12.75v116.43c0,3.56,2.9,6.46,6.46,6.46h65.09c3.56,0,6.46-2.9,6.46-6.46V513.57    c0-7.03,5.72-12.75,12.75-12.75h98.94c17.72,0,32.13-14.41,32.13-32.13v-68.22H143.01z"/></g><g><rect x="219.42" y="163.26" width="20" height="227.21"/></g><g><rect x="123.01" y="163.26" width="20" height="227.21"/></g><g><rect x="412.23" y="163.26" width="20" height="227.21"/></g><g><rect x="508.64" y="163.26" width="20" height="160.98"/></g><g><rect x="315.83" y="163.26" width="20" height="227.21"/></g></g><text x="0" y="1039" fill="#000000" font-size="5px" font-weight="bold" font-family="'Helvetica Neue', Helvetica, Arial-Unicode, Arial, Sans-serif">Created by IconPai</text><text x="0" y="1044" fill="#000000" font-size="5px" font-weight="bold" font-family="'Helvetica Neue', Helvetica, Arial-Unicode, Arial, Sans-serif">from the Noun Project</text></svg>