<svg xmlns="http://www.w3.org/2000/svg" xmlns:xlink="http://www.w3.org/1999/xlink" version="1.1" x="0px" y="0px" viewBox="0 0 1024 1280" style="enable-background:new 0 0 1024 1024;" xml:space="preserve"><g><g><path d="M436.12,908.94c-28.72,0-58.05-3.93-87.07-11.84c-108.41-29.56-195.77-113.39-222.57-213.56    c-19.05-71.19-19.18-152.73-0.36-218.12c23.75-82.51,74.62-164.35,147.12-236.69c33.29-33.22,71.84-59.93,114.56-79.4    c43.16-19.67,88.63-31.03,135.14-33.79c34.54-2.04,69.29,3.46,97.82,15.48c33.76,14.22,57.94,37.05,69.92,66.04    c13.95,33.71,11.08,75.96-8.3,122.17c-7.04,16.78-15.52,33.01-23.72,48.7c-9.67,18.5-19.67,37.63-26.99,57.21    c-12.15,32.52-14.64,64.15-7,89.05c1.11,3.63,0.08,7.58-2.68,10.19c-8.48,8.04-16.73,16.63-24.54,25.51L404.43,769.66    c-4.35,4.95-6.74,11.32-6.74,17.91c0,7.05,2.69,13.73,7.58,18.81c9.86,10.25,25.62,11.23,36.67,2.27l220.2-178.72    c2.62-2.12,6.13-2.79,9.34-1.76c3.21,1.02,5.69,3.59,6.6,6.84c10.34,37,11.12,70.28,2.37,101.74    c-9.3,33.47-25.23,63.41-47.35,88.99c-22.14,25.61-49.48,45.69-81.24,59.67C516.3,901.04,476.83,908.94,436.12,908.94z     M536.78,135.13c-4.26,0-8.49,0.13-12.67,0.37c-88.52,5.24-172.6,43.37-236.76,107.38c-70.1,69.95-119.21,148.81-142.02,228.07    c-17.86,62.05-17.69,139.59,0.46,207.42c24.99,93.43,106.84,171.71,208.51,199.44c65.76,17.92,133.05,14.12,189.47-10.7    c58.53-25.77,100.22-73.96,117.38-135.72c6.56-23.6,7-48.58,1.3-75.98L454.53,824.17c-9.2,7.47-20.79,11.18-32.61,10.44    c-11.82-0.73-22.86-5.84-31.07-14.38c-8.49-8.82-13.16-20.42-13.16-32.67c0-11.45,4.16-22.5,11.71-31.11l193.02-219.78    c6.87-7.82,14.07-15.42,21.46-22.64c-8.79-35.4-0.11-71.39,9.05-95.91c7.75-20.74,18.04-40.44,28-59.48    c8.01-15.32,16.29-31.17,23.01-47.17c12.04-28.72,23.25-70.56,8.26-106.79C652.04,155.92,591.75,135.13,536.78,135.13z"/></g><g><path d="M527.95,309.29c-28.77,0-52.17-23.4-52.17-52.17c0-28.77,23.4-52.17,52.17-52.17s52.17,23.4,52.17,52.17    C580.12,285.88,556.72,309.29,527.95,309.29z M527.95,224.94c-17.74,0-32.17,14.43-32.17,32.17s14.43,32.17,32.17,32.17    s32.17-14.43,32.17-32.17S545.69,224.94,527.95,224.94z"/></g><g><path d="M385.48,417.76c-34.83,0-63.16-28.33-63.16-63.16c0-34.83,28.33-63.16,63.16-63.16s63.16,28.33,63.16,63.16    C448.64,389.43,420.31,417.76,385.48,417.76z M385.48,311.44c-23.8,0-43.16,19.36-43.16,43.16c0,23.8,19.36,43.16,43.16,43.16    s43.16-19.36,43.16-43.16C428.64,330.8,409.28,311.44,385.48,311.44z"/></g><g><path d="M309.1,620.66c-41.16,0-74.65-33.49-74.65-74.65s33.49-74.65,74.65-74.65s74.65,33.49,74.65,74.65    S350.26,620.66,309.1,620.66z M309.1,491.36c-30.14,0-54.65,24.52-54.65,54.65s24.52,54.65,54.65,54.65    c30.13,0,54.65-24.52,54.65-54.65S339.23,491.36,309.1,491.36z"/></g><g><path d="M407.46,761.05c-2.71,0-5.31-1.1-7.19-3.05c-15.98-16.55-24.79-38.33-24.79-61.35c0-48.7,39.62-88.32,88.32-88.32    c19.13,0,37.33,6.02,52.65,17.41c2.24,1.67,3.68,4.2,3.98,6.97c0.29,2.78-0.59,5.55-2.43,7.65L414.97,757.65    c-1.84,2.1-4.48,3.33-7.28,3.4C407.62,761.05,407.54,761.05,407.46,761.05z M463.8,628.33c-37.67,0-68.32,30.65-68.32,68.32    c0,14.11,4.28,27.62,12.21,38.99l87.55-99.67C485.59,630.94,474.89,628.33,463.8,628.33z"/></g><g><path d="M817.39,488.72c-7.05,0-14.37-0.91-22-2.72l4.62-19.46c24.32,5.77,43.04,0.31,60.68-17.72    C881.7,427.36,888.53,399,890.57,379c1.94-19.11,1.85-37.41-0.4-57.34c-11.76,8.79-26.48,14.02-39.36,17.79    c-9.47,2.77-18.83,4.52-27.88,6.2c-9.14,1.7-17.76,3.31-26.43,5.89c-18.48,5.49-31.79,15.44-36.53,27.29    c-5.62,14.06-3.68,32.7,0.01,45.46l-19.21,5.56c-5.98-20.66-5.74-42.51,0.63-58.45c9.62-24.04,35.08-34.78,49.4-39.04    c9.67-2.87,19.22-4.65,28.46-6.38c8.96-1.67,17.42-3.25,25.93-5.74c16.1-4.71,35.54-11.9,43.07-25.75    c2.03-3.74,6.21-5.78,10.41-5.09c4.2,0.69,7.5,3.97,8.23,8.16c5.18,29.9,6.31,56.41,3.56,83.44    c-2.36,23.18-10.43,56.19-35.48,81.79C858.02,480.15,839.03,488.72,817.39,488.72z"/></g><g><path d="M424.86,834.71c-0.98,0-1.95-0.03-2.93-0.09c-11.82-0.73-22.86-5.84-31.07-14.38c-8.49-8.82-13.16-20.42-13.16-32.67    c0-11.45,4.16-22.5,11.71-31.11l10.54-12.01l103.02-117.29l79.46-90.48c8.2-9.34,16.88-18.37,25.8-26.83    c25-23.79,52.99-44.42,83.17-61.28l54.09-30.23c3.97-2.22,8.93-1.48,12.09,1.8l47.33,49.2c3.15,3.28,3.7,8.27,1.33,12.15    l-32.3,52.88c-24.62,40.27-55.67,75.76-92.28,105.47l-6.92,5.62l-220.2,178.72C446.09,831.02,435.65,834.71,424.86,834.71z     M748.51,439.56l-47.35,26.47c-28.72,16.05-55.35,35.67-79.16,58.33c-8.49,8.05-16.75,16.64-24.55,25.52l-79.46,90.48    l-113.56,129.3c-4.35,4.96-6.75,11.32-6.75,17.91c0,7.05,2.69,13.73,7.58,18.81c9.86,10.25,25.62,11.23,36.67,2.27l227.12-184.34    c34.85-28.28,64.4-62.05,87.82-100.37l28.28-46.29L748.51,439.56z"/></g><g><rect x="675.55" y="475.68" transform="matrix(0.7207 -0.6932 0.6932 0.7207 -180.6434 625.1696)" width="20" height="122.19"/></g></g><text x="0" y="1039" fill="#000000" font-size="5px" font-weight="bold" font-family="'Helvetica Neue', Helvetica, Arial-Unicode, Arial, Sans-serif">Created by IconPai</text><text x="0" y="1044" fill="#000000" font-size="5px" font-weight="bold" font-family="'Helvetica Neue', Helvetica, Arial-Unicode, Arial, Sans-serif">from the Noun Project</text></svg>