<svg xmlns="http://www.w3.org/2000/svg" xmlns:xlink="http://www.w3.org/1999/xlink" version="1.1" x="0px" y="0px" viewBox="0 0 1024 1280" style="enable-background:new 0 0 1024 1024;" xml:space="preserve"><g><g><rect x="276.69" y="196.44" width="228.54" height="20"/></g><g><rect x="701.2" y="268.92" width="135.8" height="20"/></g><g><rect x="311.13" y="258.29" width="42.08" height="20"/></g><g><rect x="311.13" y="315.79" width="42.08" height="20"/></g><g><rect x="311.13" y="373.29" width="42.08" height="20"/></g><g><path d="M769.23,695.92h-0.27c-33.16,0-60.13-26.98-60.13-60.13V278.92c0-5.52,4.48-10,10-10h100.54c5.52,0,10,4.48,10,10v356.87    C829.36,668.94,802.39,695.92,769.23,695.92z M728.83,288.92v346.87c0,22.13,18,40.13,40.13,40.13h0.27    c22.13,0,40.13-18,40.13-40.13V288.92H728.83z"/></g><g><rect x="522.16" y="268.92" width="135.8" height="20"/></g><g><path d="M606.38,693.07c-3.54,0-6.94-1.89-8.74-5.14l-66.58-119.77c-0.83-1.49-1.26-3.16-1.26-4.86V278.92c0-5.52,4.48-10,10-10    h100.54c5.52,0,10,4.48,10,10v353.99c0,26.85-16.3,50.78-40.55,59.56C608.66,692.88,607.51,693.07,606.38,693.07z M549.79,560.71    l60.74,109.26c12.1-7.63,19.8-21.61,19.8-37.06V288.92h-80.54V560.71z"/></g><g><path d="M885,827.56H591.48c-5.52,0-10-4.48-10-10s4.48-10,10-10c13.47,0,25.68-6.66,33.52-18.28    c8.62-12.8,10.33-28.93,4.57-43.17c-1.25-3.08-0.88-6.58,0.98-9.34c1.86-2.76,4.97-4.41,8.29-4.41H885c5.52,0,10,4.48,10,10v75.2    C895,823.08,890.52,827.56,885,827.56z M636.05,807.56H875v-55.2H652c2.81,16.58-0.79,33.8-10.43,48.1    C639.87,802.98,638.02,805.36,636.05,807.56z"/></g><g><path d="M591.48,827.56H190.45c-21.48,0-41.01-11.41-52.25-30.51c-11.88-20.19-12.18-45.45-0.8-65.92l149-268.03    c11-19.79,16.81-42.39,16.81-65.36v-191.3c0-5.52,4.48-10,10-10h155.52c5.52,0,10,4.48,10,10v191.3    c0,22.97,5.81,45.57,16.81,65.36l149,268.03c1.35,2.42,2.56,4.95,3.58,7.5c8.25,20.38,5.81,43.5-6.54,61.82    C629.97,817.68,611.71,827.56,591.48,827.56z M323.2,216.44v181.3c0,26.36-6.69,52.32-19.33,75.08l-149,268.03    c-8.07,14.52-7.86,31.74,0.56,46.06c7.72,13.13,20.48,20.65,35.01,20.65h401.03c13.47,0,25.68-6.66,33.52-18.28    c8.62-12.8,10.33-28.93,4.57-43.17c-0.72-1.8-1.56-3.55-2.51-5.25l-149-268.04c-12.65-22.75-19.33-48.72-19.33-75.08v-181.3H323.2    z"/></g><g><path d="M885,752.36H638.83c-4.08,0-7.76-2.48-9.28-6.27c-0.71-1.77-1.55-3.53-2.5-5.22l-149-268.04    c-12.65-22.75-19.33-48.72-19.33-75.08v-34.38c0-5.52,4.48-10,10-10H885c5.52,0,10,4.48,10,10v379    C895,747.88,890.52,752.36,885,752.36z M645.2,732.36H875v-359H478.72v24.38c0,22.97,5.81,45.57,16.81,65.36l149,268.03    C644.76,731.54,644.98,731.95,645.2,732.36z"/></g><g><path d="M418.37,595.61c-24.11,0-48.1-2.6-71.44-5.13c-13.45-1.46-27.36-2.97-40.97-3.93c-27.5-1.95-50.69-1.14-70.9,2.49    l-3.53-19.69c21.86-3.92,46.67-4.82,75.85-2.75c13.97,0.99,28.07,2.52,41.71,4c28.01,3.04,56.98,6.18,85.12,4.58    c37.16-2.11,69.9-13.51,92.19-32.12l12.82,15.35c-25.56,21.34-62.45,34.39-103.87,36.74    C429.68,595.46,424.02,595.61,418.37,595.61z"/></g><g><path d="M294.77,749.52c-21.08,0-38.22-17.15-38.22-38.22s17.15-38.22,38.22-38.22s38.22,17.15,38.22,38.22    S315.84,749.52,294.77,749.52z M294.77,693.07c-10.05,0-18.22,8.17-18.22,18.22s8.17,18.22,18.22,18.22s18.22-8.17,18.22-18.22    S304.82,693.07,294.77,693.07z"/></g><g><path d="M468.72,685.57c-9.65,0-17.5-7.85-17.5-17.5c0-9.65,7.85-17.5,17.5-17.5s17.5,7.85,17.5,17.5    C486.22,677.72,478.37,685.57,468.72,685.57z M468.72,665.57c-1.38,0-2.5,1.12-2.5,2.5c0,1.38,1.12,2.5,2.5,2.5    c1.38,0,2.5-1.12,2.5-2.5C471.22,666.69,470.1,665.57,468.72,665.57z"/></g></g><text x="0" y="1039" fill="#000000" font-size="5px" font-weight="bold" font-family="'Helvetica Neue', Helvetica, Arial-Unicode, Arial, Sans-serif">Created by IconPai</text><text x="0" y="1044" fill="#000000" font-size="5px" font-weight="bold" font-family="'Helvetica Neue', Helvetica, Arial-Unicode, Arial, Sans-serif">from the Noun Project</text></svg>