<svg xmlns="http://www.w3.org/2000/svg" xmlns:xlink="http://www.w3.org/1999/xlink" version="1.1" x="0px" y="0px" viewBox="0 0 1024 1280" style="enable-background:new 0 0 1024 1024;" xml:space="preserve"><g><g><path d="M274.46,331l-14.3-13.98c16.22-16.59,16.22-43.59,0-60.19c-11.59-11.85-17.97-27.5-17.97-44.08    c0-16.57,6.38-32.23,17.97-44.08l14.3,13.98c-16.22,16.59-16.22,43.59,0,60.19c11.59,11.85,17.97,27.5,17.97,44.08    C292.42,303.5,286.04,319.15,274.46,331z"/></g><g><path d="M763.84,331l-14.3-13.98c16.22-16.59,16.22-43.59,0-60.19c-11.59-11.85-17.97-27.5-17.97-44.08    c0-16.57,6.38-32.23,17.97-44.08l14.3,13.98c-16.22,16.59-16.22,43.59,0,60.19c11.59,11.85,17.97,27.5,17.97,44.08    C781.81,303.5,775.43,319.15,763.84,331z"/></g><g><path d="M519.15,232.01l-14.3-13.98c12.4-12.68,12.4-33.32,0-46c-9.72-9.94-15.08-23.08-15.08-36.98s5.35-27.04,15.08-36.98    l14.3,13.98c-12.4,12.68-12.4,33.32,0,46c9.72,9.94,15.08,23.08,15.08,36.98S528.87,222.07,519.15,232.01z"/></g><g><path d="M826.08,630.94H197.92c-5.52,0-10-4.48-10-10c0-80.29,29.58-157.32,83.29-216.91c53.31-59.14,126.06-96.5,204.85-105.18    c23.67-2.63,48.2-2.63,71.88,0c78.78,8.69,151.53,46.04,204.84,105.18c53.71,59.59,83.29,136.62,83.29,216.91    C836.08,626.46,831.6,630.94,826.08,630.94z M208.08,610.94h607.84c-4.86-150.84-119.38-275.58-270.17-292.21    c-22.24-2.47-45.26-2.47-67.48,0C327.46,335.36,212.95,460.1,208.08,610.94z"/></g><g><path d="M477.15,318.79c-4.76,0-8.93-3.39-9.82-8.16l-6.38-34.13c-2.85-15.23,1.2-30.81,11.1-42.73    c9.9-11.92,24.46-18.75,39.95-18.75c28.65,0,51.95,23.26,51.95,51.85c0,3.18-0.3,6.42-0.9,9.62l-6.38,34.14    c-0.96,5.15-5.73,8.68-10.93,8.1c-22.22-2.47-45.25-2.47-67.47,0C477.89,318.77,477.52,318.79,477.15,318.79z M512,296.87    c8.9,0,17.84,0.37,26.69,1.09l4.7-25.14c0.37-1.99,0.56-4,0.56-5.95c0-17.56-14.33-31.85-31.95-31.85    c-9.53,0-18.48,4.2-24.57,11.53c-6.09,7.33-8.57,16.91-6.82,26.27l4.7,25.14C494.16,297.24,503.1,296.87,512,296.87z"/></g><g><path d="M248.15,928.94h-55.33c-12.87,0-23.33-10.95-23.33-24.4l0-187.2c0-13.45,10.47-24.4,23.33-24.4h55.33    c6.38,0,12.33,2.64,16.77,7.42c4.24,4.57,6.57,10.6,6.57,16.98l0,187.2C271.48,917.99,261.02,928.94,248.15,928.94z     M192.82,712.94c-1.81,0-3.33,2.01-3.33,4.4l0,187.2c0,2.38,1.53,4.4,3.33,4.4h55.33c1.81,0,3.33-2.01,3.33-4.4l0,0l0-187.2    c0-1.78-0.78-2.89-1.24-3.39c-0.43-0.46-1.14-1.01-2.09-1.01H192.82z"/></g><g><path d="M515.05,903.94H261.48c-2.65,0-5.2-1.05-7.07-2.93c-1.88-1.88-2.93-4.42-2.93-7.07l0.01-150c0-5.52,4.48-10,10-10h18.87    c14.91,0,29.25-6.29,39.35-17.27c13.87-15.08,33.58-23.73,54.07-23.73l146.44,0c22.61,0,41,18.39,41,41s-18.39,41-41,41h-84    c-5.24,0-9.5,4.26-9.5,9.5s4.26,9.5,9.5,9.5h112.63c21.04,0,41.95-5.29,60.46-15.31l99.19-53.66    c19.12-10.34,42.72-4.56,54.89,13.45c12.98,19.2,7.93,45.41-11.26,58.41l-92.64,62.78C616.7,888.61,566.75,903.94,515.05,903.94z     M271.49,883.94h243.56c47.69,0,93.76-14.14,133.24-40.89l92.64-62.78c10.07-6.82,12.72-20.57,5.91-30.65    c-6.39-9.45-18.77-12.48-28.81-7.06l-99.19,53.66c-21.42,11.59-45.62,17.71-69.98,17.71H436.21c-16.27,0-29.5-13.23-29.5-29.5    s13.23-29.5,29.5-29.5h84c11.58,0,21-9.42,21-21c0-11.58-9.42-21-21-21l-146.44,0c-14.91,0-29.25,6.3-39.35,17.27    c-13.87,15.08-33.58,23.73-54.07,23.73h-8.87L271.49,883.94z"/></g><g><path d="M790.93,712.94H233.07c-17.54,0-34.23-7.56-45.8-20.73l-56.78-64.67c-2.59-2.95-3.22-7.15-1.6-10.72    c1.62-3.58,5.18-5.88,9.11-5.88h748c3.93,0,7.49,2.3,9.11,5.88c1.62,3.58,1,7.77-1.6,10.72l-56.78,64.67    C825.16,705.38,808.47,712.94,790.93,712.94z M160.09,630.94l42.21,48.07c7.77,8.85,18.99,13.93,30.77,13.93h557.87    c11.78,0,23-5.08,30.77-13.93l42.21-48.07H160.09z"/></g><g><path d="M302.23,542.88l-18.74-6.98c23.32-62.63,72.02-113.5,133.63-139.56l7.79,18.42C368.35,438.69,323.64,485.38,302.23,542.88    z"/></g><g><path d="M220.49,750.67c-5.93,0-10.75-4.82-10.75-10.75s4.82-10.75,10.75-10.75s10.75,4.82,10.75,10.75    S226.42,750.67,220.49,750.67z M220.49,730.67c-5.1,0-9.25,4.15-9.25,9.25s4.15,9.25,9.25,9.25s9.25-4.15,9.25-9.25    S225.59,730.67,220.49,730.67z"/></g></g><text x="0" y="1039" fill="#000000" font-size="5px" font-weight="bold" font-family="'Helvetica Neue', Helvetica, Arial-Unicode, Arial, Sans-serif">Created by IconPai</text><text x="0" y="1044" fill="#000000" font-size="5px" font-weight="bold" font-family="'Helvetica Neue', Helvetica, Arial-Unicode, Arial, Sans-serif">from the Noun Project</text></svg>